<svg width="503" height="515" viewBox="0 0 714 686" fill="none" xmlns="http://www.w3.org/2000/svg">
<g filter="url(#filter0_d)">
<circle cx="393" cy="293" r="293" fill="url(#paint0_linear)"/>
</g>
<path d="M641.212 471.042V622.187H267.359C224.763 622.187 190.107 588.284 190.107 546.615C190.107 504.945 224.763 471.042 267.359 471.042H641.212Z" fill="#F2F2F2"/>
<path d="M650.394 621.024C650.394 622.566 649.789 624.044 648.713 625.134C647.637 626.224 646.177 626.837 644.655 626.837H260.7C239.846 626.837 219.847 618.447 205.101 603.511C190.356 588.575 182.072 568.318 182.072 547.196C182.072 526.074 190.356 505.817 205.101 490.881C219.847 475.945 239.846 467.555 260.7 467.555H644.655C646.177 467.555 647.637 468.167 648.713 469.257C649.79 470.347 650.394 471.826 650.394 473.368C650.394 474.91 649.79 476.388 648.713 477.478C647.637 478.569 646.177 479.181 644.655 479.181H260.7C242.891 479.181 225.811 486.347 213.218 499.102C200.625 511.857 193.55 529.157 193.55 547.196C193.55 565.235 200.625 582.535 213.218 595.29C225.811 608.045 242.891 615.211 260.7 615.211H644.655C646.177 615.212 647.637 615.824 648.713 616.914C649.789 618.004 650.394 619.483 650.394 621.024Z" fill="#0E47BF"/>
<path d="M641.212 505.922H239.464C239.16 505.922 238.868 505.799 238.653 505.581C238.437 505.363 238.317 505.068 238.317 504.759C238.317 504.451 238.437 504.155 238.653 503.937C238.868 503.719 239.16 503.597 239.464 503.597H641.212C641.516 503.597 641.808 503.719 642.023 503.937C642.239 504.155 642.36 504.451 642.36 504.759C642.36 505.068 642.239 505.363 642.023 505.581C641.808 505.799 641.516 505.922 641.212 505.922Z" fill="#CCCCCC"/>
<path d="M641.212 533.826H239.464C239.16 533.826 238.868 533.703 238.653 533.485C238.437 533.267 238.317 532.971 238.317 532.663C238.317 532.354 238.437 532.059 238.653 531.841C238.868 531.623 239.16 531.5 239.464 531.5H641.212C641.516 531.5 641.808 531.623 642.023 531.841C642.239 532.059 642.36 532.354 642.36 532.663C642.36 532.971 642.239 533.267 642.023 533.485C641.808 533.703 641.516 533.826 641.212 533.826Z" fill="#CCCCCC"/>
<path d="M641.212 561.729H239.464C239.16 561.729 238.868 561.607 238.653 561.389C238.437 561.17 238.317 560.875 238.317 560.566C238.317 560.258 238.437 559.962 238.653 559.744C238.868 559.526 239.16 559.404 239.464 559.404H641.212C641.516 559.404 641.808 559.526 642.023 559.744C642.239 559.962 642.36 560.258 642.36 560.566C642.36 560.875 642.239 561.17 642.023 561.389C641.808 561.607 641.516 561.729 641.212 561.729Z" fill="#CCCCCC"/>
<path d="M641.212 589.633H239.464C239.16 589.633 238.868 589.51 238.653 589.292C238.437 589.074 238.317 588.778 238.317 588.47C238.317 588.162 238.437 587.866 238.653 587.648C238.868 587.43 239.16 587.307 239.464 587.307H641.212C641.516 587.307 641.808 587.43 642.023 587.648C642.239 587.866 642.36 588.162 642.36 588.47C642.36 588.778 642.239 589.074 642.023 589.292C641.808 589.51 641.516 589.633 641.212 589.633Z" fill="#CCCCCC"/>
<path d="M713.184 628H107.816C107.599 628 107.392 627.684 107.239 627.121C107.086 626.559 107 625.796 107 625C107 624.204 107.086 623.441 107.239 622.879C107.392 622.316 107.599 622 107.816 622H713.184C713.401 622 713.608 622.316 713.761 622.879C713.914 623.441 714 624.204 714 625C714 625.796 713.914 626.559 713.761 627.121C713.608 627.684 713.401 628 713.184 628Z" fill="#CCCCCC"/>
<path d="M537.174 164.582H469.162C467.673 164.587 466.202 164.248 464.862 163.59C463.522 162.933 462.348 161.975 461.429 160.79V160.79C460.494 159.593 459.84 158.195 459.518 156.704C459.197 155.213 459.215 153.667 459.573 152.185C465.841 125.611 465.841 97.9161 459.573 71.3421C459.215 69.8594 459.197 68.3137 459.518 66.8227C459.84 65.3316 460.494 63.9345 461.429 62.7376C462.348 61.5519 463.522 60.5939 464.862 59.9366C466.202 59.2794 467.673 58.9402 469.162 58.9448H537.174C539.522 58.9516 541.792 59.8019 543.579 61.3441C545.365 62.8864 546.553 65.0205 546.931 67.3663C551.407 96.7911 551.407 126.736 546.931 156.161C546.553 158.507 545.365 160.641 543.579 162.183C541.792 163.725 539.522 164.576 537.174 164.582V164.582Z" fill="#E6E6E6"/>
<path d="M469.162 64.1244C468.446 64.122 467.74 64.2847 467.097 64.6001C466.453 64.9155 465.889 65.3753 465.448 65.9445C464.993 66.5278 464.676 67.2083 464.52 67.9344C464.364 68.6604 464.374 69.4128 464.549 70.1344C471.005 97.5026 471.005 126.025 464.549 153.393C464.374 154.114 464.364 154.866 464.52 155.592C464.675 156.318 464.993 156.999 465.447 157.582L465.448 157.582C465.889 158.152 466.453 158.612 467.097 158.927C467.74 159.242 468.446 159.405 469.162 159.403H537.174C538.302 159.403 539.393 158.998 540.253 158.261C541.114 157.523 541.688 156.5 541.873 155.374C546.269 126.471 546.269 97.0565 541.873 68.1533C541.688 67.0273 541.114 66.0044 540.253 65.2666C539.393 64.5288 538.302 64.124 537.174 64.1244L469.162 64.1244Z" fill="white"/>
<path d="M522.332 89.0304H486.642C485.285 89.0289 483.985 88.4827 483.025 87.5117C482.066 86.5407 481.526 85.2242 481.525 83.851V81.8269C481.526 80.4537 482.066 79.1372 483.025 78.1662C483.985 77.1952 485.285 76.649 486.642 76.6475H522.332C523.689 76.649 524.99 77.1952 525.949 78.1662C526.909 79.1372 527.448 80.4537 527.45 81.8269V83.851C527.448 85.2242 526.909 86.5407 525.949 87.5117C524.99 88.4827 523.689 89.0289 522.332 89.0304Z" fill="#E6E6E6"/>
<path d="M522.332 114.605H486.642C485.285 114.604 483.985 114.058 483.025 113.087C482.066 112.116 481.526 110.799 481.525 109.426V107.402C481.526 106.029 482.066 104.712 483.025 103.741C483.985 102.77 485.285 102.224 486.642 102.223H522.332C523.689 102.224 524.99 102.77 525.949 103.741C526.909 104.712 527.448 106.029 527.45 107.402V109.426C527.448 110.799 526.909 112.116 525.949 113.087C524.99 114.058 523.689 114.604 522.332 114.605Z" fill="#E6E6E6"/>
<path d="M522.332 140.18H486.642C485.285 140.179 483.985 139.633 483.025 138.662C482.066 137.691 481.526 136.374 481.525 135.001V132.977C481.526 131.604 482.066 130.287 483.025 129.316C483.985 128.345 485.285 127.799 486.642 127.798H522.332C523.689 127.799 524.99 128.345 525.949 129.316C526.909 130.287 527.448 131.604 527.45 132.977V135.001C527.448 136.374 526.909 137.691 525.949 138.662C524.99 139.633 523.689 140.179 522.332 140.18V140.18Z" fill="#E6E6E6"/>
<path d="M665.111 230.191H597.098C595.609 230.195 594.139 229.856 592.799 229.199C591.459 228.542 590.285 227.584 589.366 226.398V226.398C588.43 225.201 587.777 223.804 587.455 222.313C587.133 220.822 587.152 219.276 587.51 217.793C593.778 191.219 593.778 163.525 587.509 136.951C587.152 135.468 587.134 133.922 587.455 132.431C587.777 130.94 588.43 129.543 589.366 128.346C590.285 127.16 591.459 126.202 592.799 125.545C594.139 124.888 595.609 124.549 597.098 124.553H665.111C667.459 124.56 669.729 125.41 671.515 126.953C673.302 128.495 674.49 130.629 674.867 132.975C679.343 162.4 679.343 192.345 674.867 221.769C674.49 224.115 673.302 226.249 671.515 227.792C669.729 229.334 667.459 230.184 665.111 230.191Z" fill="#E6E6E6"/>
<path d="M597.098 129.733C596.383 129.73 595.677 129.893 595.034 130.209C594.39 130.524 593.826 130.984 593.384 131.553C592.93 132.136 592.612 132.817 592.457 133.543C592.301 134.269 592.311 135.021 592.486 135.743C598.942 163.111 598.942 191.633 592.486 219.001C592.311 219.723 592.301 220.475 592.457 221.201C592.612 221.927 592.93 222.607 593.384 223.19L593.385 223.191C593.826 223.76 594.39 224.22 595.034 224.535C595.677 224.851 596.383 225.014 597.098 225.011H665.111C666.239 225.012 667.33 224.607 668.19 223.869C669.051 223.131 669.624 222.108 669.809 220.982C674.206 192.079 674.206 162.665 669.809 133.762C669.624 132.636 669.051 131.613 668.19 130.875C667.33 130.137 666.239 129.732 665.111 129.733L597.098 129.733Z" fill="white"/>
<path d="M529.498 304.864H461.485C459.932 304.868 458.398 304.514 457 303.829C455.602 303.143 454.377 302.144 453.418 300.906C452.443 299.658 451.761 298.201 451.425 296.647C451.09 295.092 451.109 293.48 451.482 291.934C457.735 265.426 457.735 237.8 451.482 211.293C451.109 209.746 451.09 208.135 451.425 206.58C451.761 205.025 452.442 203.568 453.418 202.32C454.377 201.083 455.602 200.084 457 199.398C458.398 198.712 459.932 198.358 461.485 198.363H529.498C531.948 198.37 534.315 199.258 536.179 200.867C538.043 202.476 539.282 204.703 539.676 207.15C544.159 236.619 544.159 266.608 539.676 296.076C539.282 298.524 538.043 300.75 536.179 302.36C534.315 303.969 531.948 304.856 529.498 304.864V304.864Z" fill="#F2F2F2"/>
<path d="M650.269 167.588H614.579C613.222 167.586 611.922 167.04 610.962 166.069C610.003 165.098 609.463 163.782 609.462 162.408V160.384C609.463 159.011 610.003 157.695 610.962 156.724C611.922 155.753 613.222 155.207 614.579 155.205H650.269C651.626 155.207 652.927 155.753 653.886 156.724C654.845 157.695 655.385 159.011 655.386 160.384V162.409C655.385 163.782 654.845 165.098 653.886 166.069C652.927 167.04 651.626 167.586 650.269 167.588V167.588Z" fill="#E6E6E6"/>
<path d="M650.269 193.163H614.579C613.222 193.161 611.922 192.615 610.962 191.644C610.003 190.673 609.463 189.357 609.462 187.984V185.959C609.463 184.586 610.003 183.27 610.962 182.299C611.922 181.328 613.222 180.782 614.579 180.78H650.269C651.626 180.782 652.927 181.328 653.886 182.299C654.845 183.27 655.385 184.586 655.386 185.959V187.984C655.385 189.357 654.845 190.673 653.886 191.644C652.927 192.615 651.626 193.161 650.269 193.163V193.163Z" fill="#E6E6E6"/>
<path d="M495.682 271.112C506.516 271.112 515.299 262.223 515.299 251.257C515.299 240.291 506.516 231.402 495.682 231.402C484.848 231.402 476.065 240.291 476.065 251.257C476.065 262.223 484.848 271.112 495.682 271.112Z" fill="white"/>
<path d="M505.064 248.667H498.241V241.761C498.241 241.074 497.971 240.416 497.491 239.93C497.011 239.444 496.36 239.171 495.682 239.171C495.003 239.171 494.352 239.444 493.873 239.93C493.393 240.416 493.123 241.074 493.123 241.761V248.667H486.3C485.621 248.667 484.97 248.94 484.491 249.426C484.011 249.912 483.741 250.57 483.741 251.257C483.741 251.944 484.011 252.603 484.491 253.088C484.97 253.574 485.621 253.847 486.3 253.847H493.123V260.753C493.123 261.44 493.393 262.099 493.873 262.584C494.352 263.07 495.003 263.343 495.682 263.343C496.36 263.343 497.011 263.07 497.491 262.584C497.971 262.099 498.241 261.44 498.241 260.753V253.847H505.064C505.743 253.847 506.393 253.574 506.873 253.088C507.353 252.603 507.623 251.944 507.623 251.257C507.623 250.57 507.353 249.912 506.873 249.426C506.393 248.94 505.743 248.667 505.064 248.667V248.667Z" fill="#E6E6E6"/>
<path d="M520.416 68.6756H484.594C483.576 68.6744 482.601 68.2648 481.881 67.5365C481.162 66.8082 480.757 65.8208 480.756 64.7909V57.8847C480.757 56.8548 481.162 55.8674 481.881 55.1391C482.601 54.4108 483.576 54.0012 484.594 54H520.416C521.434 54.0012 522.409 54.4108 523.129 55.1391C523.848 55.8674 524.253 56.8548 524.254 57.8847V64.7909C524.253 65.8208 523.848 66.8082 523.129 67.5365C522.409 68.2648 521.434 68.6744 520.416 68.6756Z" fill="#CCCCCC"/>
<path d="M650.059 135.147H614.237C613.219 135.146 612.244 134.736 611.524 134.008C610.804 133.28 610.4 132.293 610.399 131.263V124.356C610.4 123.327 610.804 122.339 611.524 121.611C612.244 120.883 613.219 120.473 614.237 120.472H650.059C651.077 120.473 652.052 120.883 652.772 121.611C653.491 122.339 653.896 123.327 653.897 124.356V131.263C653.896 132.293 653.491 133.28 652.772 134.008C652.052 134.736 651.077 135.146 650.059 135.147Z" fill="#CCCCCC"/>
<path d="M339.415 460.653H349.872L353.141 419.83H339.414L339.415 460.653Z" fill="#FFB8B8"/>
<path d="M336.749 457.197L357.341 457.196H357.342C359.065 457.196 360.772 457.54 362.364 458.207C363.956 458.875 365.403 459.853 366.622 461.087C367.84 462.32 368.807 463.784 369.466 465.396C370.126 467.007 370.465 468.735 370.465 470.479V470.911L336.749 470.912L336.749 457.197Z" fill="#2F2E41"/>
<path d="M283.123 460.653H293.58L298.555 419.83H283.122L283.123 460.653Z" fill="#FFB8B8"/>
<path d="M280.456 457.197L301.049 457.196H301.05C302.773 457.196 304.48 457.54 306.072 458.207C307.664 458.875 309.111 459.853 310.329 461.087C311.548 462.32 312.515 463.784 313.174 465.396C313.834 467.007 314.173 468.735 314.173 470.479V470.911L280.457 470.912L280.456 457.197Z" fill="#2F2E41"/>
<path d="M284.979 447.757C283.912 447.757 282.884 447.35 282.1 446.619V446.619C281.679 446.23 281.34 445.759 281.103 445.234C280.866 444.71 280.737 444.142 280.722 443.565L276.528 291.445L336.071 306.511L354.443 362.294C356.812 369.47 357.837 377.03 357.466 384.587L355.185 438.659C355.133 439.767 354.662 440.812 353.868 441.577C353.075 442.342 352.021 442.769 350.926 442.768H340.939C339.908 442.763 338.913 442.383 338.137 441.697C337.361 441.01 336.855 440.063 336.713 439.03L329.575 379.342C328.951 374.686 327.342 370.221 324.857 366.252L310.81 343.741C310.716 343.59 310.578 343.473 310.416 343.405C310.254 343.337 310.074 343.321 309.903 343.36C309.731 343.398 309.576 343.49 309.458 343.621C309.339 343.753 309.264 343.918 309.242 344.095L298.219 443.447C298.1 444.455 297.635 445.388 296.903 446.082C296.172 446.776 295.222 447.187 294.221 447.242L285.221 447.749C285.14 447.754 285.06 447.757 284.979 447.757Z" fill="#2F2E41"/>
<path d="M326.163 192.958C337.732 192.958 347.111 183.465 347.111 171.755C347.111 160.045 337.732 150.552 326.163 150.552C314.593 150.552 305.214 160.045 305.214 171.755C305.214 183.465 314.593 192.958 326.163 192.958Z" fill="#FFB8B8"/>
<path d="M335.786 312.698C335.425 312.697 335.066 312.651 334.717 312.561H334.717L275.64 297.229C274.584 296.955 273.672 296.282 273.091 295.349C272.509 294.415 272.304 293.291 272.516 292.209L286.084 218.234C286.929 213.958 288.787 209.954 291.498 206.565C294.209 203.176 297.693 200.503 301.649 198.777C305.504 197.05 309.72 196.31 313.924 196.622C318.129 196.935 322.193 198.29 325.757 200.568C326.584 201.091 327.417 201.66 328.233 202.261C331.516 204.712 334.193 207.9 336.054 211.573C337.915 215.247 338.911 219.308 338.961 223.436L340.04 308.321C340.048 308.891 339.943 309.458 339.733 309.988C339.522 310.518 339.21 311 338.815 311.407C338.419 311.814 337.948 312.138 337.428 312.359C336.908 312.581 336.35 312.696 335.786 312.698V312.698Z" fill="#0E47BF"/>
<path d="M281.719 313.568C281.014 312.518 280.545 311.325 280.345 310.072C280.146 308.819 280.22 307.537 280.562 306.317C280.905 305.096 281.508 303.966 282.329 303.006C283.15 302.047 284.168 301.281 285.313 300.764L282.685 270.03L296.61 277.668L296.97 305.683C297.702 307.687 297.683 309.893 296.915 311.883C296.147 313.874 294.685 315.51 292.805 316.482C290.925 317.454 288.758 317.694 286.715 317.157C284.672 316.62 282.894 315.343 281.719 313.568H281.719Z" fill="#FFB8B8"/>
<path d="M286.693 296.699C286.301 296.698 285.909 296.648 285.529 296.55C284.71 296.338 283.963 295.907 283.367 295.301C282.77 294.695 282.347 293.938 282.141 293.108L275.298 265.584C272.906 255.971 274.046 245.806 278.506 236.98L292.842 208.594C293.749 205.195 295.938 202.293 298.939 200.514C301.94 198.735 305.512 198.22 308.884 199.082C310.565 199.512 312.145 200.275 313.532 201.327C314.919 202.379 316.086 203.7 316.965 205.212C317.862 206.746 318.449 208.445 318.692 210.21C318.934 211.976 318.826 213.773 318.376 215.496L297.968 261.686L298.21 289.341C298.217 290.317 297.927 291.271 297.38 292.075C296.833 292.878 296.056 293.492 295.153 293.834L288.324 296.401C287.802 296.598 287.25 296.699 286.693 296.699Z" fill="#0E47BF"/>
<path d="M384.382 302.263C383.137 302.119 381.937 301.7 380.869 301.036C379.8 300.372 378.889 299.479 378.198 298.42C377.507 297.361 377.055 296.161 376.872 294.906C376.689 293.65 376.78 292.369 377.139 291.153L352.41 273.12L367.213 267.421L388.427 285.419C390.405 286.165 392.044 287.619 393.034 289.507C394.024 291.394 394.295 293.583 393.796 295.659C393.298 297.736 392.064 299.555 390.329 300.772C388.594 301.989 386.478 302.519 384.382 302.263H384.382Z" fill="#FFB8B8"/>
<path d="M371.437 289.095C370.708 289.094 369.989 288.922 369.337 288.593L344.262 275.888C335.504 271.451 328.635 263.945 324.934 254.768L313.03 225.252C311.076 222.339 310.332 218.767 310.957 215.304C311.582 211.841 313.527 208.765 316.371 206.74C317.793 205.728 319.399 205.013 321.096 204.636C322.793 204.259 324.548 204.228 326.257 204.544C327.986 204.859 329.637 205.518 331.113 206.483C332.589 207.448 333.861 208.7 334.855 210.166L356.131 255.953L376.998 273.808C377.733 274.439 378.258 275.284 378.503 276.228C378.749 277.171 378.701 278.168 378.368 279.084L375.836 285.997C375.505 286.904 374.907 287.686 374.124 288.239C373.336 288.796 372.398 289.095 371.437 289.095V289.095Z" fill="#0E47BF"/>
<path d="M321.764 193.283C322.877 193.776 325.156 184.799 324.135 183.004C322.617 180.334 322.706 180.353 321.698 178.586C320.69 176.82 320.465 174.402 321.77 172.848C323.076 171.293 326.096 171.499 326.692 173.448C326.309 169.747 329.926 166.771 333.509 165.935C337.092 165.099 340.872 165.618 344.475 164.874C348.656 164.01 353.007 160.463 351.338 155.809C351.052 155.034 350.624 154.321 350.075 153.708C348.148 151.514 345.451 150.578 342.815 149.672C337.331 147.788 331.697 145.88 325.909 146.088C321.14 146.341 316.547 147.995 312.692 150.848C308.837 153.701 305.888 157.63 304.205 162.153C303.806 163.285 303.497 164.447 303.281 165.628C301.294 176.44 307.498 187.104 317.573 191.221L321.764 193.283Z" fill="#2F2E41"/>
<path opacity="0.2" d="M297.029 289.969L297.504 261.542L312.382 231.266L300.441 262.344L297.029 289.969Z" fill="black"/>
<path d="M431.94 361.309L369.133 334.897C367.757 334.323 366.527 333.438 365.539 332.311C364.551 331.184 363.83 329.843 363.431 328.391C363.02 326.923 362.946 325.379 363.215 323.877C363.483 322.375 364.086 320.954 364.978 319.724C380.841 297.618 391.339 272.043 395.624 245.069C395.856 243.561 396.425 242.126 397.287 240.874C398.149 239.622 399.282 238.586 400.6 237.844C401.898 237.106 403.346 236.677 404.832 236.59C406.319 236.504 407.805 236.762 409.179 237.344L471.986 263.756C474.152 264.674 475.925 266.341 476.99 268.459C478.056 270.577 478.344 273.009 477.803 275.322C470.782 304.233 459.431 331.886 444.143 357.321C442.905 359.34 440.999 360.85 438.764 361.58C436.53 362.311 434.112 362.214 431.94 361.309Z" fill="#E6E6E6"/>
<path d="M407.215 242.127C406.556 241.847 405.842 241.723 405.128 241.765C404.414 241.806 403.719 242.012 403.095 242.366C402.454 242.728 401.903 243.233 401.484 243.843C401.065 244.453 400.789 245.152 400.677 245.886C396.264 273.667 385.452 300.006 369.116 322.772C368.681 323.37 368.386 324.061 368.255 324.792C368.123 325.523 368.158 326.274 368.357 326.989L368.357 326.99C368.549 327.687 368.896 328.331 369.37 328.872C369.845 329.413 370.436 329.838 371.097 330.113L433.904 356.526C434.945 356.964 436.106 357.014 437.181 356.667C438.255 356.32 439.173 355.598 439.77 354.63C454.787 329.646 465.937 302.483 472.834 274.085C473.09 272.973 472.948 271.806 472.433 270.79C471.918 269.775 471.064 268.977 470.022 268.539L407.215 242.127Z" fill="white"/>
<path d="M440.657 300.922L407.699 287.062C406.446 286.534 405.452 285.524 404.934 284.255C404.416 282.986 404.417 281.561 404.936 280.292L405.704 278.423C406.226 277.155 407.223 276.149 408.477 275.625C409.731 275.101 411.139 275.102 412.393 275.627L445.351 289.487C446.604 290.015 447.598 291.025 448.116 292.294C448.633 293.563 448.633 294.989 448.113 296.257L447.346 298.126C446.824 299.394 445.827 300.4 444.573 300.924C443.319 301.448 441.911 301.448 440.657 300.922V300.922Z" fill="#0E47BF"/>
<path d="M430.962 324.54L398.003 310.68C396.751 310.152 395.757 309.142 395.239 307.873C394.721 306.604 394.722 305.178 395.241 303.91L396.009 302.04C396.531 300.773 397.528 299.767 398.782 299.243C400.036 298.718 401.444 298.719 402.698 299.245L435.656 313.105C436.909 313.633 437.903 314.642 438.421 315.912C438.938 317.181 438.938 318.606 438.418 319.875L437.651 321.744C437.129 323.012 436.132 324.018 434.878 324.542C433.624 325.066 432.216 325.065 430.962 324.54V324.54Z" fill="#0E47BF"/>
<path d="M453.864 267.73C453.37 267.73 452.882 267.633 452.425 267.445L419.214 253.854C418.271 253.467 417.518 252.718 417.121 251.769C416.724 250.821 416.714 249.752 417.094 248.797L419.652 242.394C420.034 241.439 420.774 240.677 421.711 240.274C422.649 239.872 423.705 239.863 424.649 240.249L457.859 253.839C458.802 254.226 459.555 254.976 459.952 255.924C460.35 256.872 460.359 257.941 459.979 258.897L457.422 265.3C457.134 266.017 456.642 266.631 456.009 267.064C455.375 267.497 454.628 267.729 453.864 267.73V267.73Z" fill="#CCCCCC"/>
<defs>
<filter id="filter0_d" x="0" y="0" width="686" height="686" filterUnits="userSpaceOnUse" color-interpolation-filters="sRGB">
<feFlood flood-opacity="0" result="BackgroundImageFix"/>
<feColorMatrix in="SourceAlpha" type="matrix" values="0 0 0 0 0 0 0 0 0 0 0 0 0 0 0 0 0 0 127 0"/>
<feOffset dx="-50" dy="50"/>
<feGaussianBlur stdDeviation="25"/>
<feColorMatrix type="matrix" values="0 0 0 0 1 0 0 0 0 0.854902 0 0 0 0 0.168627 0 0 0 0.1 0"/>
<feBlend mode="normal" in2="BackgroundImageFix" result="effect1_dropShadow"/>
<feBlend mode="normal" in="SourceGraphic" in2="effect1_dropShadow" result="shape"/>
</filter>
<linearGradient id="paint0_linear" x1="789.125" y1="564.313" x2="200.47" y2="78.3399" gradientUnits="userSpaceOnUse">
<stop stop-color="#FFDA2B"/>
<stop offset="1" stop-color="#FFDA2B" stop-opacity="0"/>
</linearGradient>
</defs>
</svg>
