<svg width="70" height="70" viewBox="0 0 100 100" fill="none" xmlns="http://www.w3.org/2000/svg">
<rect width="100" height="100" rx="50" fill="#0E47BF"/>
<path d="M33.2819 68.6961H72.2352C72.3545 68.6961 72.47 68.6781 72.5811 68.6498C72.5899 68.6498 72.5973 68.6514 72.6061 68.6514C73.4377 68.6514 74.1132 67.9316 74.1132 67.0439V21.6076C74.1133 20.7202 73.4377 20 72.6061 20H72.2382H35.6923H33.284C29.2726 20 26.0096 23.4814 26.0096 27.7591C26.0096 27.8165 26.0202 27.871 26.0255 27.9263C26.0202 31.8779 25.9743 68.1883 26.0202 72.9617C26.0174 73.0551 26.0067 73.1462 26.0067 73.2405C26.0067 77.3538 29.0261 80.7212 32.824 80.9757C32.9002 80.9882 32.9749 81 33.0539 81H72.606C73.4375 81 74.1131 80.2802 74.1131 79.3924V73.3411C74.1131 72.454 73.4374 71.7335 72.606 71.7335C71.7746 71.7335 71.0989 72.4541 71.0989 73.3411V77.7849H33.2819C30.9917 77.7849 29.1222 75.8453 29.0303 73.4267C29.0325 73.3835 29.0399 73.3427 29.0391 73.2988C29.0377 73.2281 29.0354 73.1183 29.0339 72.9722C29.1656 70.5918 31.0178 68.6961 33.2819 68.6961ZM34.3095 27.7591C34.3095 26.8717 34.9847 26.1515 35.8166 26.1515C36.6486 26.1515 37.3237 26.8717 37.3237 27.7591V60.4139C37.3237 61.3009 36.6486 62.0215 35.8166 62.0215C34.9847 62.0215 34.3095 61.3008 34.3095 60.4139V27.7591Z" fill="white"/>
<path d="M62.356 32.836H66.604V58H61.996L47.74 39.64V58H43.492V32.836H47.74L62.356 51.628V32.836Z" fill="#0E47BF"/>
</svg>
